<?xml version="1.0" encoding="UTF-8" standalone="no"?>
<!DOCTYPE svg PUBLIC "-//W3C//DTD SVG 1.1//EN" "http://www.w3.org/Graphics/SVG/1.1/DTD/svg11.dtd">
<!-- Generated by graphviz version 2.40.1 (20161225.0304)
 -->
<!-- Title: G Pages: 1 -->
<svg width="278pt" height="260pt" viewBox="0.00 0.00 278.00 260.00" xmlns="http://www.w3.org/2000/svg" xmlns:xlink="http://www.w3.org/1999/xlink">
<g id="graph0" class="graph" transform="scale(1 1) rotate(0) translate(4 256)">
<title>G</title>
<polygon fill="#ffffff" stroke="transparent" points="-4,4 -4,-256 274,-256 274,4 -4,4"/>
<!-- Q1 -->
<g id="node1" class="node">
<title>Q1</title>
<ellipse fill="none" stroke="#000000" cx="135" cy="-234" rx="27" ry="18"/>
<text text-anchor="middle" x="135" y="-229.8" font-family="Times,serif" font-size="14.00" fill="#000000">Q1</text>
</g>
<!-- Q2 -->
<g id="node2" class="node">
<title>Q2</title>
<ellipse fill="none" stroke="#000000" cx="27" cy="-162" rx="27" ry="18"/>
<text text-anchor="middle" x="27" y="-157.8" font-family="Times,serif" font-size="14.00" fill="#000000">Q2</text>
</g>
<!-- Q1&#45;&gt;Q2 -->
<g id="edge1" class="edge">
<title>Q1-&gt;Q2</title>
<path fill="none" stroke="#000000" d="M115.6918,-221.1278C98.6445,-209.763 73.5981,-193.0654 54.4656,-180.3104"/>
<polygon fill="#000000" stroke="#000000" points="56.4031,-177.3956 46.1411,-174.7607 52.5201,-183.2199 56.4031,-177.3956"/>
</g>
<!-- Q5 -->
<g id="node5" class="node">
<title>Q5</title>
<ellipse fill="none" stroke="#000000" cx="99" cy="-162" rx="27" ry="18"/>
<text text-anchor="middle" x="99" y="-157.8" font-family="Times,serif" font-size="14.00" fill="#000000">Q5</text>
</g>
<!-- Q1&#45;&gt;Q5 -->
<g id="edge4" class="edge">
<title>Q1-&gt;Q5</title>
<path fill="none" stroke="#000000" d="M126.2854,-216.5708C122.0403,-208.0807 116.8464,-197.6929 112.1337,-188.2674"/>
<polygon fill="#000000" stroke="#000000" points="115.237,-186.6477 107.6343,-179.2687 108.976,-189.7782 115.237,-186.6477"/>
</g>
<!-- Q7 -->
<g id="node7" class="node">
<title>Q7</title>
<ellipse fill="none" stroke="#000000" cx="171" cy="-162" rx="27" ry="18"/>
<text text-anchor="middle" x="171" y="-157.8" font-family="Times,serif" font-size="14.00" fill="#000000">Q7</text>
</g>
<!-- Q1&#45;&gt;Q7 -->
<g id="edge6" class="edge">
<title>Q1-&gt;Q7</title>
<path fill="none" stroke="#000000" d="M143.7146,-216.5708C147.9597,-208.0807 153.1536,-197.6929 157.8663,-188.2674"/>
<polygon fill="#000000" stroke="#000000" points="161.024,-189.7782 162.3657,-179.2687 154.763,-186.6477 161.024,-189.7782"/>
</g>
<!-- Q9 -->
<g id="node9" class="node">
<title>Q9</title>
<ellipse fill="none" stroke="#000000" cx="243" cy="-162" rx="27" ry="18"/>
<text text-anchor="middle" x="243" y="-157.8" font-family="Times,serif" font-size="14.00" fill="#000000">Q9</text>
</g>
<!-- Q1&#45;&gt;Q9 -->
<g id="edge8" class="edge">
<title>Q1-&gt;Q9</title>
<path fill="none" stroke="#000000" d="M154.3082,-221.1278C171.3555,-209.763 196.4019,-193.0654 215.5344,-180.3104"/>
<polygon fill="#000000" stroke="#000000" points="217.4799,-183.2199 223.8589,-174.7607 213.5969,-177.3956 217.4799,-183.2199"/>
</g>
<!-- Q3 -->
<g id="node3" class="node">
<title>Q3</title>
<ellipse fill="none" stroke="#000000" cx="27" cy="-90" rx="27" ry="18"/>
<text text-anchor="middle" x="27" y="-85.8" font-family="Times,serif" font-size="14.00" fill="#000000">Q3</text>
</g>
<!-- Q2&#45;&gt;Q3 -->
<g id="edge2" class="edge">
<title>Q2-&gt;Q3</title>
<path fill="none" stroke="#000000" d="M27,-143.8314C27,-136.131 27,-126.9743 27,-118.4166"/>
<polygon fill="#000000" stroke="#000000" points="30.5001,-118.4132 27,-108.4133 23.5001,-118.4133 30.5001,-118.4132"/>
</g>
<!-- Q4 -->
<g id="node4" class="node">
<title>Q4</title>
<ellipse fill="none" stroke="#000000" cx="27" cy="-18" rx="27" ry="18"/>
<text text-anchor="middle" x="27" y="-13.8" font-family="Times,serif" font-size="14.00" fill="#000000">Q4</text>
</g>
<!-- Q3&#45;&gt;Q4 -->
<g id="edge3" class="edge">
<title>Q3-&gt;Q4</title>
<path fill="none" stroke="#000000" d="M27,-71.8314C27,-64.131 27,-54.9743 27,-46.4166"/>
<polygon fill="#000000" stroke="#000000" points="30.5001,-46.4132 27,-36.4133 23.5001,-46.4133 30.5001,-46.4132"/>
</g>
<!-- Q6 -->
<g id="node6" class="node">
<title>Q6</title>
<ellipse fill="none" stroke="#000000" cx="99" cy="-90" rx="27" ry="18"/>
<text text-anchor="middle" x="99" y="-85.8" font-family="Times,serif" font-size="14.00" fill="#000000">Q6</text>
</g>
<!-- Q5&#45;&gt;Q6 -->
<g id="edge5" class="edge">
<title>Q5-&gt;Q6</title>
<path fill="none" stroke="#000000" d="M99,-143.8314C99,-136.131 99,-126.9743 99,-118.4166"/>
<polygon fill="#000000" stroke="#000000" points="102.5001,-118.4132 99,-108.4133 95.5001,-118.4133 102.5001,-118.4132"/>
</g>
<!-- Q8 -->
<g id="node8" class="node">
<title>Q8</title>
<ellipse fill="none" stroke="#000000" cx="171" cy="-90" rx="27" ry="18"/>
<text text-anchor="middle" x="171" y="-85.8" font-family="Times,serif" font-size="14.00" fill="#000000">Q8</text>
</g>
<!-- Q7&#45;&gt;Q8 -->
<g id="edge7" class="edge">
<title>Q7-&gt;Q8</title>
<path fill="none" stroke="#000000" d="M171,-143.8314C171,-136.131 171,-126.9743 171,-118.4166"/>
<polygon fill="#000000" stroke="#000000" points="174.5001,-118.4132 171,-108.4133 167.5001,-118.4133 174.5001,-118.4132"/>
</g>
</g>
</svg>